<svg id="Component_1" data-name="Component 1" xmlns="http://www.w3.org/2000/svg" width="748.848" height="748.842" viewBox="0 0 748.848 748.842">
  <path id="Path_1333" data-name="Path 1333" d="M1054.675,258.368H705.213c-110.285,0-199.693,89.407-199.693,199.693V807.517a198.707,198.707,0,0,0,29.749,104.849c30.049-47.906,82.374-114.1,93.756-130.494-9.755-70.976,5.547-202.039,147.019-244.384,141.472-42.33,185.744-6.844,273.618-10.7,87.875-3.874,135.821-101.319,130.509-163.119,80.631,312.864-221.12,361.818-263.13,343.471,49.734,35.725,88.833,47.617,116.835,43.269C899.479,878.194,737.3,862.568,668.7,833.473q3.625-5.489,7.8-11.422a529.871,529.871,0,0,1,39.889-50.308c7.793-8.822,16.32-17.5,25.141-26.185,8.991-8.482,18.272-17.009,28.082-24.882l7.339-5.936,7.539-5.656c4.952-3.879,10.169-7.3,15.261-10.858,5.073-3.594,10.419-6.675,15.531-9.99,5.191-3.175,10.5-6.016,15.631-9,5.232-2.776,10.474-5.347,15.556-7.953,5.177-2.406,10.319-4.623,15.3-6.86,10.089-4.084,19.744-7.793,28.88-10.548,2.276-.724,4.5-1.453,6.675-2.147q3.318-.861,6.48-1.7c4.224-1.088,8.232-2.127,11.991-3.1,7.628-1.467,14.278-2.95,19.8-3.834,11.108-1.533,17.448-2.4,17.448-2.4s-6.406.354-17.623.978c-5.606.434-12.376,1.388-20.194,2.241-3.864.684-7.982,1.388-12.326,2.147-2.177.379-4.414.774-6.69,1.183-2.257.52-4.568,1.063-6.919,1.617-9.49,2.042-19.59,5.013-30.233,8.342-5.242,1.877-10.678,3.7-16.175,5.751-5.4,2.236-11,4.428-16.589,6.849-5.5,2.611-11.2,5.1-16.809,7.938-5.526,2.976-11.3,5.706-16.814,8.976-5.547,3.23-11.238,6.35-16.669,9.92l-8.272,5.222-8.078,5.521c-10.823,7.344-21.147,15.386-31.2,23.434-9.885,8.252-19.485,16.575-28.336,25.086a556.833,556.833,0,0,0-45.875,49.119c-1.647,1.987-3.2,3.9-4.743,5.806-12.69,18.891-68.794,89.837-92.722,130.234a199.181,199.181,0,0,0,148.437,66.143h349.462c110.29,0,199.692-89.407,199.692-199.693V458.061C1254.368,347.775,1164.965,258.368,1054.675,258.368Z" transform="translate(-505.52 -258.368)" fill="#fff"/>
</svg>
